<svg width="36" height="52" viewBox="0 0 36 52" fill="none" xmlns="http://www.w3.org/2000/svg">
<g filter="url(#filter0_f_3523_27723)">
<ellipse cx="18" cy="44.5" rx="14" ry="3.5" fill="#636366"/>
</g>
<mask id="path-2-inside-1_3523_27723" fill="white">
<path fill-rule="evenodd" clip-rule="evenodd" d="M0 18.3333C0 8.25 8.1 0 18 0C27.9 0 36 8.25 36 18.3333C36 23.2833 34.2 27.8667 30.6 31.35L19.26 43.45C18.54 44.1833 17.46 44.1833 16.74 43.45L5.22 31.35C1.8 27.8667 0 23.1 0 18.3333Z"/>
</mask>
<path fill-rule="evenodd" clip-rule="evenodd" d="M0 18.3333C0 8.25 8.1 0 18 0C27.9 0 36 8.25 36 18.3333C36 23.2833 34.2 27.8667 30.6 31.35L19.26 43.45C18.54 44.1833 17.46 44.1833 16.74 43.45L5.22 31.35C1.8 27.8667 0 23.1 0 18.3333Z" fill="#FFF135"/>
<path d="M30.6 31.35L29.9046 30.6313L29.8871 30.6483L29.8703 30.6662L30.6 31.35ZM19.26 43.45L19.9736 44.1506L19.9817 44.1423L19.9896 44.1338L19.26 43.45ZM16.74 43.45L16.0157 44.1395L16.021 44.1451L16.0264 44.1506L16.74 43.45ZM5.22 31.35L5.94425 30.6605L5.93895 30.6549L5.93356 30.6494L5.22 31.35ZM18 -1C7.5305 -1 -1 7.71509 -1 18.3333H1C1 8.78491 8.6695 1 18 1V-1ZM37 18.3333C37 7.71509 28.4695 -1 18 -1V1C27.3305 1 35 8.78491 35 18.3333H37ZM31.2954 32.0687C35.103 28.3844 37 23.5357 37 18.3333H35C35 23.0309 33.297 27.3489 29.9046 30.6313L31.2954 32.0687ZM19.9896 44.1338L31.3296 32.0338L29.8703 30.6662L18.5303 42.7662L19.9896 44.1338ZM16.0264 44.1506C17.1384 45.2831 18.8616 45.2831 19.9736 44.1506L18.5464 42.7494C18.2184 43.0835 17.7816 43.0835 17.4536 42.7494L16.0264 44.1506ZM4.49575 32.0395L16.0157 44.1395L17.4643 42.7605L5.94425 30.6605L4.49575 32.0395ZM-1 18.3333C-1 23.3443 0.890787 28.368 4.50644 32.0506L5.93356 30.6494C2.70921 27.3654 1 22.8557 1 18.3333H-1Z" fill="black" mask="url(#path-2-inside-1_3523_27723)"/>
<path d="M19.1815 8C19.1229 8.00272 19.0658 8.01891 19.0145 8.04731C18.9633 8.07571 18.9193 8.11554 18.8859 8.16372L10.0694 20.8125C10.0292 20.87 10.0054 20.9375 10.0008 21.0076C9.99623 21.0777 10.0109 21.1477 10.0434 21.21C10.0758 21.2723 10.1247 21.3245 10.1847 21.3609C10.2447 21.3974 10.3136 21.4166 10.3838 21.4167H16.4836L15.752 30.5881C15.723 30.975 16.2229 31.1532 16.4474 30.8373L25.2653 18.1886C25.3056 18.131 25.3294 18.0635 25.334 17.9935C25.3386 17.9234 25.3238 17.8534 25.2914 17.7911C25.259 17.7288 25.2101 17.6766 25.1501 17.6401C25.09 17.6037 25.0212 17.5844 24.9509 17.5844H18.8511L19.5828 8.41293C19.5868 8.35875 19.5792 8.30434 19.5606 8.2533C19.5419 8.20227 19.5127 8.15577 19.4747 8.11687C19.4368 8.07798 19.3911 8.04758 19.3405 8.02768C19.2899 8.00779 19.2357 7.9974 19.1815 8Z" fill="black"/>
<defs>
<filter id="filter0_f_3523_27723" x="0" y="37" width="36" height="15" filterUnits="userSpaceOnUse" color-interpolation-filters="sRGB">
<feFlood flood-opacity="0" result="BackgroundImageFix"/>
<feBlend mode="normal" in="SourceGraphic" in2="BackgroundImageFix" result="shape"/>
<feGaussianBlur stdDeviation="2" result="effect1_foregroundBlur_3523_27723"/>
</filter>
</defs>
</svg>
